<?xml version="1.0" standalone="no"?>
<!DOCTYPE svg PUBLIC "-//W3C//DTD SVG 20010904//EN"
 "http://www.w3.org/TR/2001/REC-SVG-20010904/DTD/svg10.dtd">
<svg version="1.0" xmlns="http://www.w3.org/2000/svg"
 width="256.000000pt" height="256.000000pt" viewBox="0 0 256.000000 256.000000"
 preserveAspectRatio="xMidYMid meet">
<metadata>
Created by potrace 1.11, written by Peter Selinger 2001-2013
</metadata>
<g transform="translate(0.000000,256.000000) scale(0.100000,-0.100000)"
fill="#000000" stroke="none">
<path d="M360 1810 l0 -70 -70 0 -70 0 0 -505 0 -505 70 0 70 0 0 -75 0 -75
435 0 435 0 0 360 0 360 -290 0 -290 0 0 -70 0 -70 145 0 145 0 0 -215 0 -215
-215 0 -215 0 0 500 0 500 215 0 215 0 0 -70 0 -70 145 0 145 0 0 75 0 75 -75
0 -75 0 0 70 0 70 -360 0 -360 0 0 -70z"/>
<path d="M1370 1230 l0 -650 145 0 145 0 0 290 0 290 145 0 145 0 0 -145 0
-145 70 0 70 0 0 -145 0 -145 145 0 145 0 0 145 0 145 -70 0 -70 0 0 215 0
215 70 0 70 0 0 220 0 220 -70 0 -70 0 0 70 0 70 -435 0 -435 0 0 -650z m720
285 l0 -215 -215 0 -215 0 0 215 0 215 215 0 215 0 0 -215z"/>
</g>
</svg>
